<svg width="50" height="50" viewBox="0 0 50 50" fill="none" xmlns="http://www.w3.org/2000/svg">
<path d="M9.39182 25.0625C5.20441 11.5625 22.5794 18.0981 30.4543 4.375C41.0793 12.125 32.3293 12.75 40.6418 16.75C41.2275 17.0318 41.1418 17.3125 41.0793 17.5625C40.9127 17.9375 40.4418 18.8125 39.8918 19.3125C39.3418 19.8125 40.2877 20.8542 40.8293 21.3125C40.9752 21.5208 41.1043 22.05 40.4543 22.5C41.8293 22.9375 41.0401 24.211 40.7668 24.375C40.4543 24.5625 40.2256 25.0625 40.4543 25.4375C41.7043 27.4875 39.911 28.8621 38.7043 29C32.1418 29.75 30.368 28.8125 27.3293 24.625C28.7043 28.3125 29.9543 28.75 32.9543 30C30.4043 34.1 33.7251 42.0833 35.7043 45.5625C25.5043 42.5625 26.7043 28.6875 12.8918 29C16.7668 23.875 20.7668 24.875 24.0168 28C19.3668 21.45 13.371 24.6042 10.9543 27C14.0793 16.625 19.7043 24.0625 25.1418 16.625C17.6418 22.0625 14.0168 14.875 9.39182 25.0625Z" fill="#64A2F8"/>
<circle cx="25" cy="25" r="24.8125" stroke="#64A2F8" stroke-width="0.375"/>
</svg>
